STARTFONT 2.1
FONT -Angband-Fixed-Medium-R-Normal--16-120-100-100-C-80-Misc-Fontspecific
SIZE 16 100 100
FONTBOUNDINGBOX 8 16 0 -2
STARTPROPERTIES 18
FONTNAME_REGISTRY ""
FOUNDRY "Angband"
FAMILY_NAME "Fixed"
WEIGHT_NAME "Medium"
SLANT "R"
SETWIDTH_NAME "Normal"
ADD_STYLE_NAME ""
PIXEL_SIZE 16
POINT_SIZE 120
RESOLUTION_X 100
RESOLUTION_Y 100
SPACING "C"
AVERAGE_WIDTH 80
CHARSET_REGISTRY "Misc"
CHARSET_ENCODING "Fontspecific"
DEFAULT_CHAR 32
FONT_DESCENT 2
FONT_ASCENT 14
ENDPROPERTIES
CHARS 217
STARTCHAR C20
ENCODING 32
SWIDTH 480 0
DWIDTH 8 0
BBX 8 16 0 -2
BITMAP
00
00
00
00
00
00
00
00
00
00
00
00
00
00
00
00
ENDCHAR
STARTCHAR C21
ENCODING 33
SWIDTH 480 0
DWIDTH 8 0
BBX 8 16 0 -2
BITMAP
00
00
30
30
30
30
30
30
00
00
30
30
00
00
00
00
ENDCHAR
STARTCHAR C22
ENCODING 34
SWIDTH 480 0
DWIDTH 8 0
BBX 8 16 0 -2
BITMAP
00
00
66
42
24
00
00
00
00
00
00
00
00
00
00
00
ENDCHAR
STARTCHAR C23
ENCODING 35
SWIDTH 480 0
DWIDTH 8 0
BBX 8 16 0 -2
BITMAP
00
6c
6c
6c
fe
6c
6c
6c
fe
6c
6c
6c
00
00
00
00
ENDCHAR
STARTCHAR C24
ENCODING 36
SWIDTH 480 0
DWIDTH 8 0
BBX 8 16 0 -2
BITMAP
00
10
7c
d2
d0
f0
7c
3e
1e
16
96
7c
10
00
00
00
ENDCHAR
STARTCHAR C25
ENCODING 37
SWIDTH 480 0
DWIDTH 8 0
BBX 8 16 0 -2
BITMAP
00
00
62
66
0e
1c
38
70
e0
cc
8c
00
00
00
00
00
ENDCHAR
STARTCHAR C26
ENCODING 38
SWIDTH 480 0
DWIDTH 8 0
BBX 8 16 0 -2
BITMAP
00
00
30
68
58
38
70
f2
d4
c8
d4
76
00
00
00
00
ENDCHAR
STARTCHAR C27
ENCODING 39
SWIDTH 480 0
DWIDTH 8 0
BBX 8 16 0 -2
BITMAP
00
00
18
08
10
00
00
00
00
00
00
00
00
00
00
00
ENDCHAR
STARTCHAR C28
ENCODING 40
SWIDTH 480 0
DWIDTH 8 0
BBX 8 16 0 -2
BITMAP
00
08
10
30
30
30
30
30
30
30
10
08
00
00
00
00
ENDCHAR
STARTCHAR C29
ENCODING 41
SWIDTH 480 0
DWIDTH 8 0
BBX 8 16 0 -2
BITMAP
00
10
08
0c
0c
0c
0c
0c
0c
0c
08
10
00
00
00
00
ENDCHAR
STARTCHAR C2A
ENCODING 42
SWIDTH 480 0
DWIDTH 8 0
BBX 8 16 0 -2
BITMAP
00
00
00
d6
fe
7c
ee
7c
fe
d6
00
00
00
00
00
00
ENDCHAR
STARTCHAR C2B
ENCODING 43
SWIDTH 480 0
DWIDTH 8 0
BBX 8 16 0 -2
BITMAP
00
00
00
18
18
18
7e
18
18
18
00
00
00
00
00
00
ENDCHAR
STARTCHAR C2C
ENCODING 44
SWIDTH 480 0
DWIDTH 8 0
BBX 8 16 0 -2
BITMAP
00
00
00
00
00
00
00
00
00
00
38
38
10
20
00
00
ENDCHAR
STARTCHAR C2D
ENCODING 45
SWIDTH 480 0
DWIDTH 8 0
BBX 8 16 0 -2
BITMAP
00
00
00
00
00
00
7e
00
00
00
00
00
00
00
00
00
ENDCHAR
STARTCHAR C2E
ENCODING 46
SWIDTH 480 0
DWIDTH 8 0
BBX 8 16 0 -2
BITMAP
00
00
00
00
00
00
00
00
00
00
18
18
00
00
00
00
ENDCHAR
STARTCHAR C2F
ENCODING 47
SWIDTH 480 0
DWIDTH 8 0
BBX 8 16 0 -2
BITMAP
00
00
02
06
0e
1c
38
70
e0
c0
80
00
00
00
00
00
ENDCHAR
STARTCHAR C30
ENCODING 48
SWIDTH 480 0
DWIDTH 8 0
BBX 8 16 0 -2
BITMAP
00
00
1c
26
66
66
6e
76
66
66
64
38
00
00
00
00
ENDCHAR
STARTCHAR C31
ENCODING 49
SWIDTH 480 0
DWIDTH 8 0
BBX 8 16 0 -2
BITMAP
00
00
18
38
78
18
18
18
18
18
18
7e
00
00
00
00
ENDCHAR
STARTCHAR C32
ENCODING 50
SWIDTH 480 0
DWIDTH 8 0
BBX 8 16 0 -2
BITMAP
00
00
3c
46
66
06
0c
18
30
62
7e
7e
00
00
00
00
ENDCHAR
STARTCHAR C33
ENCODING 51
SWIDTH 480 0
DWIDTH 8 0
BBX 8 16 0 -2
BITMAP
00
00
3c
66
66
06
3c
06
06
66
66
3c
00
00
00
00
ENDCHAR
STARTCHAR C34
ENCODING 52
SWIDTH 480 0
DWIDTH 8 0
BBX 8 16 0 -2
BITMAP
00
00
02
06
0e
16
26
46
ff
06
06
0f
00
00
00
00
ENDCHAR
STARTCHAR C35
ENCODING 53
SWIDTH 480 0
DWIDTH 8 0
BBX 8 16 0 -2
BITMAP
00
00
7e
7e
40
5c
66
46
06
66
46
3c
00
00
00
00
ENDCHAR
STARTCHAR C36
ENCODING 54
SWIDTH 480 0
DWIDTH 8 0
BBX 8 16 0 -2
BITMAP
00
00
1c
26
66
60
7c
66
66
66
66
3c
00
00
00
00
ENDCHAR
STARTCHAR C37
ENCODING 55
SWIDTH 480 0
DWIDTH 8 0
BBX 8 16 0 -2
BITMAP
00
00
7e
7e
42
06
0c
18
30
30
30
30
00
00
00
00
ENDCHAR
STARTCHAR C38
ENCODING 56
SWIDTH 480 0
DWIDTH 8 0
BBX 8 16 0 -2
BITMAP
00
00
3c
66
62
74
3c
2e
46
46
66
3c
00
00
00
00
ENDCHAR
STARTCHAR C39
ENCODING 57
SWIDTH 480 0
DWIDTH 8 0
BBX 8 16 0 -2
BITMAP
00
00
3c
66
66
66
66
3e
06
66
64
38
00
00
00
00
ENDCHAR
STARTCHAR C3A
ENCODING 58
SWIDTH 480 0
DWIDTH 8 0
BBX 8 16 0 -2
BITMAP
00
00
00
00
00
18
00
00
18
00
00
00
00
00
00
00
ENDCHAR
STARTCHAR C3B
ENCODING 59
SWIDTH 480 0
DWIDTH 8 0
BBX 8 16 0 -2
BITMAP
00
00
00
00
00
30
30
00
00
00
38
18
10
20
00
00
ENDCHAR
STARTCHAR C3C
ENCODING 60
SWIDTH 480 0
DWIDTH 8 0
BBX 8 16 0 -2
BITMAP
00
00
00
04
0c
18
30
60
30
18
0c
04
00
00
00
00
ENDCHAR
STARTCHAR C3D
ENCODING 61
SWIDTH 480 0
DWIDTH 8 0
BBX 8 16 0 -2
BITMAP
00
00
00
00
00
7e
00
00
7e
00
00
00
00
00
00
00
ENDCHAR
STARTCHAR C3E
ENCODING 62
SWIDTH 480 0
DWIDTH 8 0
BBX 8 16 0 -2
BITMAP
00
00
00
20
30
18
0c
06
0c
18
30
20
00
00
00
00
ENDCHAR
STARTCHAR C3F
ENCODING 63
SWIDTH 480 0
DWIDTH 8 0
BBX 8 16 0 -2
BITMAP
00
00
7c
c6
86
06
0c
18
30
00
30
30
00
00
00
00
ENDCHAR
STARTCHAR C40
ENCODING 64
SWIDTH 480 0
DWIDTH 8 0
BBX 8 16 0 -2
BITMAP
00
00
3c
46
9a
b6
ba
b6
9c
80
c2
7c
00
00
00
00
ENDCHAR
STARTCHAR C41
ENCODING 65
SWIDTH 480 0
DWIDTH 8 0
BBX 8 16 0 -2
BITMAP
00
00
06
0e
0e
16
16
26
3e
46
46
ef
00
00
00
00
ENDCHAR
STARTCHAR C42
ENCODING 66
SWIDTH 480 0
DWIDTH 8 0
BBX 8 16 0 -2
BITMAP
00
00
fc
66
62
66
7c
66
62
62
66
fc
00
00
00
00
ENDCHAR
STARTCHAR C43
ENCODING 67
SWIDTH 480 0
DWIDTH 8 0
BBX 8 16 0 -2
BITMAP
00
00
3e
46
c2
c0
c0
c0
c0
c2
e6
7c
00
00
00
00
ENDCHAR
STARTCHAR C44
ENCODING 68
SWIDTH 480 0
DWIDTH 8 0
BBX 8 16 0 -2
BITMAP
00
00
fc
6e
66
66
66
66
66
66
64
f8
00
00
00
00
ENDCHAR
STARTCHAR C45
ENCODING 69
SWIDTH 480 0
DWIDTH 8 0
BBX 8 16 0 -2
BITMAP
00
00
fe
62
60
64
7c
64
60
60
62
fe
00
00
00
00
ENDCHAR
STARTCHAR C46
ENCODING 70
SWIDTH 480 0
DWIDTH 8 0
BBX 8 16 0 -2
BITMAP
00
00
fe
62
60
64
7c
64
60
60
60
f0
00
00
00
00
ENDCHAR
STARTCHAR C47
ENCODING 71
SWIDTH 480 0
DWIDTH 8 0
BBX 8 16 0 -2
BITMAP
00
00
3c
66
c2
c0
ce
c6
c6
c6
e4
78
00
00
00
00
ENDCHAR
STARTCHAR C48
ENCODING 72
SWIDTH 480 0
DWIDTH 8 0
BBX 8 16 0 -2
BITMAP
00
00
e7
66
66
66
7e
66
66
66
66
e7
00
00
00
00
ENDCHAR
STARTCHAR C49
ENCODING 73
SWIDTH 480 0
DWIDTH 8 0
BBX 8 16 0 -2
BITMAP
00
00
3c
18
18
18
18
18
18
18
18
3c
00
00
00
00
ENDCHAR
STARTCHAR C4A
ENCODING 74
SWIDTH 480 0
DWIDTH 8 0
BBX 8 16 0 -2
BITMAP
00
00
3c
18
18
18
18
18
18
18
18
18
d8
70
00
00
ENDCHAR
STARTCHAR C4B
ENCODING 75
SWIDTH 480 0
DWIDTH 8 0
BBX 8 16 0 -2
BITMAP
00
00
e7
62
62
64
68
7c
6e
66
66
e7
00
00
00
00
ENDCHAR
STARTCHAR C4C
ENCODING 76
SWIDTH 480 0
DWIDTH 8 0
BBX 8 16 0 -2
BITMAP
00
00
f0
60
60
60
60
60
60
60
62
fe
00
00
00
00
ENDCHAR
STARTCHAR C4D
ENCODING 77
SWIDTH 480 0
DWIDTH 8 0
BBX 8 16 0 -2
BITMAP
00
00
e7
66
76
7e
7e
56
46
46
46
ef
00
00
00
00
ENDCHAR
STARTCHAR C4E
ENCODING 78
SWIDTH 480 0
DWIDTH 8 0
BBX 8 16 0 -2
BITMAP
00
00
e7
62
72
72
5a
5a
4e
4e
46
e6
00
00
00
00
ENDCHAR
STARTCHAR C4F
ENCODING 79
SWIDTH 480 0
DWIDTH 8 0
BBX 8 16 0 -2
BITMAP
00
00
3c
4e
c6
c6
c6
c6
c6
c6
e4
78
00
00
00
00
ENDCHAR
STARTCHAR C50
ENCODING 80
SWIDTH 480 0
DWIDTH 8 0
BBX 8 16 0 -2
BITMAP
00
00
fc
66
66
66
64
78
60
60
60
f0
00
00
00
00
ENDCHAR
STARTCHAR C51
ENCODING 81
SWIDTH 480 0
DWIDTH 8 0
BBX 8 16 0 -2
BITMAP
00
00
3c
4e
c6
c6
c6
c6
d6
d6
f4
78
0e
00
00
00
ENDCHAR
STARTCHAR C52
ENCODING 82
SWIDTH 480 0
DWIDTH 8 0
BBX 8 16 0 -2
BITMAP
00
00
fc
66
66
66
6c
78
64
66
66
e7
00
00
00
00
ENDCHAR
STARTCHAR C53
ENCODING 83
SWIDTH 480 0
DWIDTH 8 0
BBX 8 16 0 -2
BITMAP
00
00
7a
c6
c2
e0
70
1c
0e
86
ce
bc
00
00
00
00
ENDCHAR
STARTCHAR C54
ENCODING 84
SWIDTH 480 0
DWIDTH 8 0
BBX 8 16 0 -2
BITMAP
00
00
ff
db
99
18
18
18
18
18
18
7e
00
00
00
00
ENDCHAR
STARTCHAR C55
ENCODING 85
SWIDTH 480 0
DWIDTH 8 0
BBX 8 16 0 -2
BITMAP
00
00
e3
62
62
62
62
62
62
62
72
3c
00
00
00
00
ENDCHAR
STARTCHAR C56
ENCODING 86
SWIDTH 480 0
DWIDTH 8 0
BBX 8 16 0 -2
BITMAP
00
00
e3
62
64
64
68
68
70
70
60
60
00
00
00
00
ENDCHAR
STARTCHAR C57
ENCODING 87
SWIDTH 480 0
DWIDTH 8 0
BBX 8 16 0 -2
BITMAP
00
00
e3
62
62
6a
6a
7e
7e
7e
6c
68
00
00
00
00
ENDCHAR
STARTCHAR C58
ENCODING 88
SWIDTH 480 0
DWIDTH 8 0
BBX 8 16 0 -2
BITMAP
00
00
f7
62
62
74
38
1c
2e
46
46
ef
00
00
00
00
ENDCHAR
STARTCHAR C59
ENCODING 89
SWIDTH 480 0
DWIDTH 8 0
BBX 8 16 0 -2
BITMAP
00
00
e3
62
74
34
38
18
18
18
18
3c
00
00
00
00
ENDCHAR
STARTCHAR C5A
ENCODING 90
SWIDTH 480 0
DWIDTH 8 0
BBX 8 16 0 -2
BITMAP
00
00
fe
86
0e
1c
38
70
e0
c0
c2
fe
00
00
00
00
ENDCHAR
STARTCHAR C5B
ENCODING 91
SWIDTH 480 0
DWIDTH 8 0
BBX 8 16 0 -2
BITMAP
00
00
3c
30
30
30
30
30
30
30
30
3c
00
00
00
00
ENDCHAR
STARTCHAR C5C
ENCODING 92
SWIDTH 480 0
DWIDTH 8 0
BBX 8 16 0 -2
BITMAP
00
00
80
c0
e0
70
38
1c
0e
06
02
00
00
00
00
00
ENDCHAR
STARTCHAR C5D
ENCODING 93
SWIDTH 480 0
DWIDTH 8 0
BBX 8 16 0 -2
BITMAP
00
00
3c
0c
0c
0c
0c
0c
0c
0c
0c
3c
00
00
00
00
ENDCHAR
STARTCHAR C5E
ENCODING 94
SWIDTH 480 0
DWIDTH 8 0
BBX 8 16 0 -2
BITMAP
00
00
10
38
6c
c6
00
00
00
00
00
00
00
00
00
00
ENDCHAR
STARTCHAR C5F
ENCODING 95
SWIDTH 480 0
DWIDTH 8 0
BBX 8 16 0 -2
BITMAP
00
00
00
00
00
00
00
00
00
00
00
7e
00
00
00
00
ENDCHAR
STARTCHAR C60
ENCODING 96
SWIDTH 480 0
DWIDTH 8 0
BBX 8 16 0 -2
BITMAP
00
00
10
20
30
00
00
00
00
00
00
00
00
00
00
00
ENDCHAR
STARTCHAR C61
ENCODING 97
SWIDTH 480 0
DWIDTH 8 0
BBX 8 16 0 -2
BITMAP
00
00
00
00
00
78
8c
1c
6c
ce
dc
68
00
00
00
00
ENDCHAR
STARTCHAR C62
ENCODING 98
SWIDTH 480 0
DWIDTH 8 0
BBX 8 16 0 -2
BITMAP
00
20
60
e0
60
6c
76
66
66
66
64
58
00
00
00
00
ENDCHAR
STARTCHAR C63
ENCODING 99
SWIDTH 480 0
DWIDTH 8 0
BBX 8 16 0 -2
BITMAP
00
00
00
00
00
1c
26
60
60
62
64
38
00
00
00
00
ENDCHAR
STARTCHAR C64
ENCODING 100
SWIDTH 480 0
DWIDTH 8 0
BBX 8 16 0 -2
BITMAP
00
04
0c
1c
0c
3c
4c
cc
cc
cc
dc
6e
00
00
00
00
ENDCHAR
STARTCHAR C65
ENCODING 101
SWIDTH 480 0
DWIDTH 8 0
BBX 8 16 0 -2
BITMAP
00
00
00
00
00
1c
22
64
78
72
64
38
00
00
00
00
ENDCHAR
STARTCHAR C66
ENCODING 102
SWIDTH 480 0
DWIDTH 8 0
BBX 8 16 0 -2
BITMAP
00
06
0f
16
30
7c
30
30
30
30
30
78
00
00
00
00
ENDCHAR
STARTCHAR C67
ENCODING 103
SWIDTH 480 0
DWIDTH 8 0
BBX 8 16 0 -2
BITMAP
00
00
00
00
06
3a
4c
64
38
7c
8e
66
62
3c
00
00
ENDCHAR
STARTCHAR C68
ENCODING 104
SWIDTH 480 0
DWIDTH 8 0
BBX 8 16 0 -2
BITMAP
00
20
60
e0
60
6c
76
66
66
66
66
e7
00
00
00
00
ENDCHAR
STARTCHAR C69
ENCODING 105
SWIDTH 480 0
DWIDTH 8 0
BBX 8 16 0 -2
BITMAP
00
00
0c
00
00
04
0c
1c
0c
0c
0c
1e
00
00
00
00
ENDCHAR
STARTCHAR C6A
ENCODING 106
SWIDTH 480 0
DWIDTH 8 0
BBX 8 16 0 -2
BITMAP
00
00
0c
00
00
04
0c
1c
0c
0c
0c
0c
68
70
00
00
ENDCHAR
STARTCHAR C6B
ENCODING 107
SWIDTH 480 0
DWIDTH 8 0
BBX 8 16 0 -2
BITMAP
00
20
60
e0
60
6e
64
68
70
78
6c
ee
00
00
00
00
ENDCHAR
STARTCHAR C6C
ENCODING 108
SWIDTH 480 0
DWIDTH 8 0
BBX 8 16 0 -2
BITMAP
00
08
18
38
18
18
18
18
18
18
18
3c
00
00
00
00
ENDCHAR
STARTCHAR C6D
ENCODING 109
SWIDTH 480 0
DWIDTH 8 0
BBX 8 16 0 -2
BITMAP
00
00
00
00
00
2a
7f
eb
6b
6b
6b
eb
00
00
00
00
ENDCHAR
STARTCHAR C6E
ENCODING 110
SWIDTH 480 0
DWIDTH 8 0
BBX 8 16 0 -2
BITMAP
00
00
00
00
00
2c
76
e6
66
66
66
e7
00
00
00
00
ENDCHAR
STARTCHAR C6F
ENCODING 111
SWIDTH 480 0
DWIDTH 8 0
BBX 8 16 0 -2
BITMAP
00
00
00
00
00
1c
26
66
66
66
64
38
00
00
00
00
ENDCHAR
STARTCHAR C70
ENCODING 112
SWIDTH 480 0
DWIDTH 8 0
BBX 8 16 0 -2
BITMAP
00
00
00
00
00
2c
76
e6
66
64
78
60
60
f0
00
00
ENDCHAR
STARTCHAR C71
ENCODING 113
SWIDTH 480 0
DWIDTH 8 0
BBX 8 16 0 -2
BITMAP
00
00
00
00
00
34
4c
cc
cc
cc
7c
0c
0c
1e
00
00
ENDCHAR
STARTCHAR C72
ENCODING 114
SWIDTH 480 0
DWIDTH 8 0
BBX 8 16 0 -2
BITMAP
00
00
00
00
06
4f
f6
60
60
60
60
f0
00
00
00
00
ENDCHAR
STARTCHAR C73
ENCODING 115
SWIDTH 480 0
DWIDTH 8 0
BBX 8 16 0 -2
BITMAP
00
00
00
00
00
1e
32
38
1c
0e
26
3c
00
00
00
00
ENDCHAR
STARTCHAR C74
ENCODING 116
SWIDTH 480 0
DWIDTH 8 0
BBX 8 16 0 -2
BITMAP
00
00
00
10
30
7e
30
30
30
32
34
18
00
00
00
00
ENDCHAR
STARTCHAR C75
ENCODING 117
SWIDTH 480 0
DWIDTH 8 0
BBX 8 16 0 -2
BITMAP
00
00
00
00
00
ee
66
66
66
67
6e
34
00
00
00
00
ENDCHAR
STARTCHAR C76
ENCODING 118
SWIDTH 480 0
DWIDTH 8 0
BBX 8 16 0 -2
BITMAP
00
00
00
00
00
e6
64
68
68
70
70
60
00
00
00
00
ENDCHAR
STARTCHAR C77
ENCODING 119
SWIDTH 480 0
DWIDTH 8 0
BBX 8 16 0 -2
BITMAP
00
00
00
00
00
e3
62
6a
6e
7e
6c
48
00
00
00
00
ENDCHAR
STARTCHAR C78
ENCODING 120
SWIDTH 480 0
DWIDTH 8 0
BBX 8 16 0 -2
BITMAP
00
00
00
00
00
ee
64
38
38
38
4c
ee
00
00
00
00
ENDCHAR
STARTCHAR C79
ENCODING 121
SWIDTH 480 0
DWIDTH 8 0
BBX 8 16 0 -2
BITMAP
00
00
00
00
00
f3
62
36
3c
1c
08
10
70
60
00
00
ENDCHAR
STARTCHAR C7A
ENCODING 122
SWIDTH 480 0
DWIDTH 8 0
BBX 8 16 0 -2
BITMAP
00
00
00
00
00
7e
46
0c
18
30
62
7e
00
00
00
00
ENDCHAR
STARTCHAR C7B
ENCODING 123
SWIDTH 480 0
DWIDTH 8 0
BBX 8 16 0 -2
BITMAP
00
0e
18
18
18
18
70
18
18
18
18
0e
00
00
00
00
ENDCHAR
STARTCHAR C7C
ENCODING 124
SWIDTH 480 0
DWIDTH 8 0
BBX 8 16 0 -2
BITMAP
00
00
30
30
30
30
00
30
30
30
30
00
00
00
00
00
ENDCHAR
STARTCHAR C7D
ENCODING 125
SWIDTH 480 0
DWIDTH 8 0
BBX 8 16 0 -2
BITMAP
00
70
18
18
18
18
0e
18
18
18
18
70
00
00
00
00
ENDCHAR
STARTCHAR C7E
ENCODING 126
SWIDTH 480 0
DWIDTH 8 0
BBX 8 16 0 -2
BITMAP
00
00
32
7e
4c
00
00
00
00
00
00
00
00
00
00
00
ENDCHAR
STARTCHAR C7F
ENCODING 127
SWIDTH 480 0
DWIDTH 8 0
BBX 8 16 0 -2
BITMAP
00
00
00
00
10
38
6c
c6
82
fe
00
00
00
00
00
00
ENDCHAR
STARTCHAR C80
ENCODING 128
SWIDTH 480 0
DWIDTH 8 0
BBX 8 16 0 -2
BITMAP
00
00
7c
c6
c6
de
de
de
dc
c0
7e
00
00
00
00
00
ENDCHAR
STARTCHAR C81
ENCODING 129
SWIDTH 480 0
DWIDTH 8 0
BBX 8 16 0 -2
BITMAP
00
00
38
6c
c6
c6
c6
fe
c6
c6
c6
00
00
00
00
00
ENDCHAR
STARTCHAR C82
ENCODING 130
SWIDTH 480 0
DWIDTH 8 0
BBX 8 16 0 -2
BITMAP
00
00
fc
66
66
66
7c
66
66
66
fc
00
00
00
00
00
ENDCHAR
STARTCHAR C83
ENCODING 131
SWIDTH 480 0
DWIDTH 8 0
BBX 8 16 0 -2
BITMAP
00
00
3c
66
c0
c0
c0
c0
c0
66
3c
00
00
00
00
00
ENDCHAR
STARTCHAR C84
ENCODING 132
SWIDTH 480 0
DWIDTH 8 0
BBX 8 16 0 -2
BITMAP
00
00
f8
6c
66
66
66
66
66
6c
f8
00
00
00
00
00
ENDCHAR
STARTCHAR C85
ENCODING 133
SWIDTH 480 0
DWIDTH 8 0
BBX 8 16 0 -2
BITMAP
00
00
fe
66
60
60
7c
60
60
66
fe
00
00
00
00
00
ENDCHAR
STARTCHAR C86
ENCODING 134
SWIDTH 480 0
DWIDTH 8 0
BBX 8 16 0 -2
BITMAP
00
00
fe
66
60
60
7c
60
60
60
f0
00
00
00
00
00
ENDCHAR
STARTCHAR C87
ENCODING 135
SWIDTH 480 0
DWIDTH 8 0
BBX 8 16 0 -2
BITMAP
00
00
7c
c6
c6
c0
c0
ce
c6
c6
7c
00
00
00
00
00
ENDCHAR
STARTCHAR C88
ENCODING 136
SWIDTH 480 0
DWIDTH 8 0
BBX 8 16 0 -2
BITMAP
00
00
c6
c6
c6
c6
fe
c6
c6
c6
c6
00
00
00
00
00
ENDCHAR
STARTCHAR C89
ENCODING 137
SWIDTH 480 0
DWIDTH 8 0
BBX 8 16 0 -2
BITMAP
00
00
3c
18
18
18
18
18
18
18
3c
00
00
00
00
00
ENDCHAR
STARTCHAR C8A
ENCODING 138
SWIDTH 480 0
DWIDTH 8 0
BBX 8 16 0 -2
BITMAP
00
00
3c
18
18
18
18
18
d8
d8
70
00
00
00
00
00
ENDCHAR
STARTCHAR C8B
ENCODING 139
SWIDTH 480 0
DWIDTH 8 0
BBX 8 16 0 -2
BITMAP
00
00
c6
cc
d8
f0
f0
d8
cc
c6
c6
00
00
00
00
00
ENDCHAR
STARTCHAR C8C
ENCODING 140
SWIDTH 480 0
DWIDTH 8 0
BBX 8 16 0 -2
BITMAP
00
00
f0
60
60
60
60
60
62
66
fe
00
00
00
00
00
ENDCHAR
STARTCHAR C8D
ENCODING 141
SWIDTH 480 0
DWIDTH 8 0
BBX 8 16 0 -2
BITMAP
00
00
c6
c6
ee
fe
d6
d6
d6
c6
c6
00
00
00
00
00
ENDCHAR
STARTCHAR C8E
ENCODING 142
SWIDTH 480 0
DWIDTH 8 0
BBX 8 16 0 -2
BITMAP
00
00
c6
c6
e6
e6
f6
de
ce
ce
c6
00
00
00
00
00
ENDCHAR
STARTCHAR C8F
ENCODING 143
SWIDTH 480 0
DWIDTH 8 0
BBX 8 16 0 -2
BITMAP
00
00
7c
c6
c6
c6
c6
c6
c6
c6
7c
00
00
00
00
00
ENDCHAR
STARTCHAR C90
ENCODING 144
SWIDTH 480 0
DWIDTH 8 0
BBX 8 16 0 -2
BITMAP
00
00
fc
66
66
66
7c
60
60
60
f0
00
00
00
00
00
ENDCHAR
STARTCHAR C91
ENCODING 145
SWIDTH 480 0
DWIDTH 8 0
BBX 8 16 0 -2
BITMAP
00
00
7c
c6
c6
c6
c6
c6
c6
d6
7c
06
00
00
00
00
ENDCHAR
STARTCHAR C92
ENCODING 146
SWIDTH 480 0
DWIDTH 8 0
BBX 8 16 0 -2
BITMAP
00
00
fc
66
66
66
7c
78
6c
66
e6
00
00
00
00
00
ENDCHAR
STARTCHAR C93
ENCODING 147
SWIDTH 480 0
DWIDTH 8 0
BBX 8 16 0 -2
BITMAP
00
00
7c
c6
c0
60
38
0c
06
c6
7c
00
00
00
00
00
ENDCHAR
STARTCHAR C94
ENCODING 148
SWIDTH 480 0
DWIDTH 8 0
BBX 8 16 0 -2
BITMAP
00
00
7e
5a
18
18
18
18
18
18
3c
00
00
00
00
00
ENDCHAR
STARTCHAR C95
ENCODING 149
SWIDTH 480 0
DWIDTH 8 0
BBX 8 16 0 -2
BITMAP
00
00
c6
c6
c6
c6
c6
c6
c6
c6
7c
00
00
00
00
00
ENDCHAR
STARTCHAR C96
ENCODING 150
SWIDTH 480 0
DWIDTH 8 0
BBX 8 16 0 -2
BITMAP
00
00
c6
c6
c6
c6
c6
c6
6c
38
10
00
00
00
00
00
ENDCHAR
STARTCHAR C97
ENCODING 151
SWIDTH 480 0
DWIDTH 8 0
BBX 8 16 0 -2
BITMAP
00
00
c6
c6
d6
d6
d6
fe
ee
c6
c6
00
00
00
00
00
ENDCHAR
STARTCHAR C98
ENCODING 152
SWIDTH 480 0
DWIDTH 8 0
BBX 8 16 0 -2
BITMAP
00
00
c6
c6
6c
38
38
38
6c
c6
c6
00
00
00
00
00
ENDCHAR
STARTCHAR C99
ENCODING 153
SWIDTH 480 0
DWIDTH 8 0
BBX 8 16 0 -2
BITMAP
00
00
66
66
66
66
3c
18
18
18
3c
00
00
00
00
00
ENDCHAR
STARTCHAR C9A
ENCODING 154
SWIDTH 480 0
DWIDTH 8 0
BBX 8 16 0 -2
BITMAP
00
00
fe
c6
8c
18
30
60
c2
c6
fe
00
00
00
00
00
ENDCHAR
STARTCHAR C9B
ENCODING 155
SWIDTH 480 0
DWIDTH 8 0
BBX 8 16 0 -2
BITMAP
00
00
00
00
00
78
0c
7c
cc
dc
76
00
00
00
00
00
ENDCHAR
STARTCHAR C9C
ENCODING 156
SWIDTH 480 0
DWIDTH 8 0
BBX 8 16 0 -2
BITMAP
00
00
e0
60
60
7c
66
66
66
66
fc
00
00
00
00
00
ENDCHAR
STARTCHAR C9D
ENCODING 157
SWIDTH 480 0
DWIDTH 8 0
BBX 8 16 0 -2
BITMAP
00
00
00
00
00
7c
c6
c0
c0
c6
7c
00
00
00
00
00
ENDCHAR
STARTCHAR C9E
ENCODING 158
SWIDTH 480 0
DWIDTH 8 0
BBX 8 16 0 -2
BITMAP
00
00
1c
0c
0c
7c
cc
cc
cc
cc
7e
00
00
00
00
00
ENDCHAR
STARTCHAR C9F
ENCODING 159
SWIDTH 480 0
DWIDTH 8 0
BBX 8 16 0 -2
BITMAP
00
00
00
00
00
7c
c6
fe
c0
c6
7c
00
00
00
00
00
ENDCHAR
STARTCHAR CA0
ENCODING 160
SWIDTH 480 0
DWIDTH 8 0
BBX 8 16 0 -2
BITMAP
00
00
1c
36
30
30
fc
30
30
30
78
00
00
00
00
00
ENDCHAR
STARTCHAR CA1
ENCODING 161
SWIDTH 480 0
DWIDTH 8 0
BBX 8 16 0 -2
BITMAP
00
00
00
00
00
76
ce
c6
c6
7e
06
c6
7c
00
00
00
ENDCHAR
STARTCHAR CA2
ENCODING 162
SWIDTH 480 0
DWIDTH 8 0
BBX 8 16 0 -2
BITMAP
00
00
e0
60
60
6c
76
66
66
66
e6
00
00
00
00
00
ENDCHAR
STARTCHAR CA3
ENCODING 163
SWIDTH 480 0
DWIDTH 8 0
BBX 8 16 0 -2
BITMAP
00
00
18
18
00
38
18
18
18
18
3c
00
00
00
00
00
ENDCHAR
STARTCHAR CA4
ENCODING 164
SWIDTH 480 0
DWIDTH 8 0
BBX 8 16 0 -2
BITMAP
00
00
0c
0c
00
1c
0c
0c
0c
0c
cc
cc
78
00
00
00
ENDCHAR
STARTCHAR CA5
ENCODING 165
SWIDTH 480 0
DWIDTH 8 0
BBX 8 16 0 -2
BITMAP
00
00
e0
60
60
66
6c
78
6c
66
e6
00
00
00
00
00
ENDCHAR
STARTCHAR CA6
ENCODING 166
SWIDTH 480 0
DWIDTH 8 0
BBX 8 16 0 -2
BITMAP
00
00
38
18
18
18
18
18
18
18
3c
00
00
00
00
00
ENDCHAR
STARTCHAR CA7
ENCODING 167
SWIDTH 480 0
DWIDTH 8 0
BBX 8 16 0 -2
BITMAP
00
00
00
00
00
6c
fe
d6
d6
c6
c6
00
00
00
00
00
ENDCHAR
STARTCHAR CA8
ENCODING 168
SWIDTH 480 0
DWIDTH 8 0
BBX 8 16 0 -2
BITMAP
00
00
00
00
00
dc
66
66
66
66
66
00
00
00
00
00
ENDCHAR
STARTCHAR CA9
ENCODING 169
SWIDTH 480 0
DWIDTH 8 0
BBX 8 16 0 -2
BITMAP
00
00
00
00
00
7c
c6
c6
c6
c6
7c
00
00
00
00
00
ENDCHAR
STARTCHAR CAA
ENCODING 170
SWIDTH 480 0
DWIDTH 8 0
BBX 8 16 0 -2
BITMAP
00
00
00
00
00
dc
66
66
66
7c
60
60
f0
00
00
00
ENDCHAR
STARTCHAR CAB
ENCODING 171
SWIDTH 480 0
DWIDTH 8 0
BBX 8 16 0 -2
BITMAP
00
00
00
00
00
76
cc
cc
cc
7c
0c
0c
1e
00
00
00
ENDCHAR
STARTCHAR CAC
ENCODING 172
SWIDTH 480 0
DWIDTH 8 0
BBX 8 16 0 -2
BITMAP
00
00
00
00
00
dc
66
60
60
60
f0
00
00
00
00
00
ENDCHAR
STARTCHAR CAD
ENCODING 173
SWIDTH 480 0
DWIDTH 8 0
BBX 8 16 0 -2
BITMAP
00
00
00
00
00
7c
c6
70
1c
c6
7c
00
00
00
00
00
ENDCHAR
STARTCHAR CAE
ENCODING 174
SWIDTH 480 0
DWIDTH 8 0
BBX 8 16 0 -2
BITMAP
00
00
30
30
30
fc
30
30
30
36
1c
00
00
00
00
00
ENDCHAR
STARTCHAR CAF
ENCODING 175
SWIDTH 480 0
DWIDTH 8 0
BBX 8 16 0 -2
BITMAP
00
00
00
00
00
cc
cc
cc
cc
cc
76
00
00
00
00
00
ENDCHAR
STARTCHAR CB0
ENCODING 176
SWIDTH 480 0
DWIDTH 8 0
BBX 8 16 0 -2
BITMAP
00
00
00
00
00
c6
c6
c6
6c
38
10
00
00
00
00
00
ENDCHAR
STARTCHAR CB1
ENCODING 177
SWIDTH 480 0
DWIDTH 8 0
BBX 8 16 0 -2
BITMAP
00
00
00
00
00
c6
c6
d6
d6
fe
6c
00
00
00
00
00
ENDCHAR
STARTCHAR CB2
ENCODING 178
SWIDTH 480 0
DWIDTH 8 0
BBX 8 16 0 -2
BITMAP
00
00
00
00
00
c6
6c
38
38
6c
c6
00
00
00
00
00
ENDCHAR
STARTCHAR CB3
ENCODING 179
SWIDTH 480 0
DWIDTH 8 0
BBX 8 16 0 -2
BITMAP
00
00
00
00
00
c6
c6
c6
ce
76
06
c6
7c
00
00
00
ENDCHAR
STARTCHAR CB4
ENCODING 180
SWIDTH 480 0
DWIDTH 8 0
BBX 8 16 0 -2
BITMAP
00
00
00
00
00
fe
8c
18
30
62
fe
00
00
00
00
00
ENDCHAR
STARTCHAR CB5
ENCODING 181
SWIDTH 480 0
DWIDTH 8 0
BBX 8 16 0 -2
BITMAP
88
00
00
00
22
00
00
00
88
00
00
00
22
00
00
00
ENDCHAR
STARTCHAR CB6
ENCODING 182
SWIDTH 480 0
DWIDTH 8 0
BBX 8 16 0 -2
BITMAP
ff
ff
42
42
7e
42
42
7e
42
42
7e
42
42
7e
42
42
ENDCHAR
STARTCHAR CB7
ENCODING 183
SWIDTH 480 0
DWIDTH 8 0
BBX 8 16 0 -2
BITMAP
42
42
7e
42
42
7e
42
42
7e
42
42
7e
42
42
ff
ff
ENDCHAR
STARTCHAR CB8
ENCODING 184
SWIDTH 480 0
DWIDTH 8 0
BBX 8 16 0 -2
BITMAP
ff
ff
95
d5
95
d5
95
d5
95
d5
95
d5
95
d5
ff
ff
ENDCHAR
STARTCHAR CB9
ENCODING 185
SWIDTH 480 0
DWIDTH 8 0
BBX 8 16 0 -2
BITMAP
ff
c3
81
81
81
81
81
81
81
81
81
81
81
81
81
81
ENDCHAR
STARTCHAR CBA
ENCODING 186
SWIDTH 480 0
DWIDTH 8 0
BBX 8 16 0 -2
BITMAP
ff
7e
52
52
52
50
02
12
00
82
82
92
92
f6
fe
ff
ENDCHAR
STARTCHAR CBB
ENCODING 187
SWIDTH 480 0
DWIDTH 8 0
BBX 8 16 0 -2
BITMAP
00
00
00
00
00
00
00
00
00
00
1c
2e
53
ff
00
00
ENDCHAR
STARTCHAR CBC
ENCODING 188
SWIDTH 480 0
DWIDTH 8 0
BBX 8 16 0 -2
BITMAP
ff
20
20
20
ff
02
02
02
ff
20
20
20
ff
02
02
02
ENDCHAR
STARTCHAR CBD
ENCODING 189
SWIDTH 480 0
DWIDTH 8 0
BBX 8 16 0 -2
BITMAP
ff
81
81
81
9d
bd
ad
ad
ad
b9
81
81
42
24
18
00
ENDCHAR
STARTCHAR CBE
ENCODING 190
SWIDTH 480 0
DWIDTH 8 0
BBX 8 16 0 -2
BITMAP
ff
81
81
81
81
bd
bd
bd
bd
99
81
81
42
24
18
00
ENDCHAR
STARTCHAR CBF
ENCODING 191
SWIDTH 480 0
DWIDTH 8 0
BBX 8 16 0 -2
BITMAP
ff
81
95
9d
bd
95
91
91
91
91
91
81
42
24
18
00
ENDCHAR
STARTCHAR CC0
ENCODING 192
SWIDTH 480 0
DWIDTH 8 0
BBX 8 16 0 -2
BITMAP
ff
e7
db
db
e7
81
81
e7
e7
e7
e7
e7
7e
3c
18
00
ENDCHAR
STARTCHAR CC1
ENCODING 193
SWIDTH 480 0
DWIDTH 8 0
BBX 8 16 0 -2
BITMAP
ff
e7
c3
e7
e7
e7
c3
a1
81
81
c3
e7
7e
3c
18
00
ENDCHAR
STARTCHAR CC2
ENCODING 194
SWIDTH 480 0
DWIDTH 8 0
BBX 8 16 0 -2
BITMAP
ff
87
83
b5
85
85
85
85
85
85
dd
e1
7e
3c
18
00
ENDCHAR
STARTCHAR CC3
ENCODING 195
SWIDTH 480 0
DWIDTH 8 0
BBX 8 16 0 -2
BITMAP
ff
81
b9
a9
b9
91
91
91
95
9d
95
81
42
24
18
00
ENDCHAR
STARTCHAR CC4
ENCODING 196
SWIDTH 480 0
DWIDTH 8 0
BBX 8 16 0 -2
BITMAP
ff
ff
ef
bb
ef
c7
ef
c7
bb
bb
bb
c7
7e
3c
18
00
ENDCHAR
STARTCHAR CC5
ENCODING 197
SWIDTH 480 0
DWIDTH 8 0
BBX 8 16 0 -2
BITMAP
00
18
3c
7e
ff
7e
66
66
66
66
66
66
66
ff
00
00
ENDCHAR
STARTCHAR CC6
ENCODING 198
SWIDTH 480 0
DWIDTH 8 0
BBX 8 16 0 -2
BITMAP
00
04
08
00
7e
90
20
40
80
84
82
82
42
3c
00
00
ENDCHAR
STARTCHAR CC7
ENCODING 199
SWIDTH 480 0
DWIDTH 8 0
BBX 8 16 0 -2
BITMAP
00
00
00
00
00
00
00
00
00
00
7e
ff
7e
00
00
00
ENDCHAR
STARTCHAR CC8
ENCODING 200
SWIDTH 480 0
DWIDTH 8 0
BBX 8 16 0 -2
BITMAP
00
00
00
00
6c
92
10
10
10
10
54
92
7c
00
00
00
ENDCHAR
STARTCHAR CC9
ENCODING 201
SWIDTH 480 0
DWIDTH 8 0
BBX 8 16 0 -2
BITMAP
c0
c0
00
00
0c
0c
00
00
c0
c0
00
00
0c
0c
00
00
ENDCHAR
STARTCHAR CCA
ENCODING 202
SWIDTH 480 0
DWIDTH 8 0
BBX 8 16 0 -2
BITMAP
55
aa
55
aa
55
aa
55
aa
55
aa
55
aa
55
aa
55
aa
ENDCHAR
STARTCHAR CCB
ENCODING 203
SWIDTH 480 0
DWIDTH 8 0
BBX 8 16 0 -2
BITMAP
00
44
aa
11
00
44
aa
11
00
44
aa
11
00
44
aa
11
ENDCHAR
STARTCHAR CCC
ENCODING 204
SWIDTH 480 0
DWIDTH 8 0
BBX 8 16 0 -2
BITMAP
00
3c
6e
df
ff
bf
ff
ff
ff
7e
18
18
3c
7e
00
00
ENDCHAR
STARTCHAR CCD
ENCODING 205
SWIDTH 480 0
DWIDTH 8 0
BBX 8 16 0 -2
BITMAP
00
00
00
18
3c
7e
7e
7e
7e
7e
3c
18
18
3c
00
00
ENDCHAR
STARTCHAR CCE
ENCODING 206
SWIDTH 480 0
DWIDTH 8 0
BBX 8 16 0 -2
BITMAP
00
24
5a
91
21
42
94
69
46
82
11
aa
44
00
00
00
ENDCHAR
STARTCHAR CCF
ENCODING 207
SWIDTH 480 0
DWIDTH 8 0
BBX 8 16 0 -2
BITMAP
00
df
df
df
00
fd
fd
fd
00
df
df
df
00
fd
fd
fd
ENDCHAR
STARTCHAR CD0
ENCODING 208
SWIDTH 480 0
DWIDTH 8 0
BBX 8 16 0 -2
BITMAP
ff
ff
ff
ff
ff
ff
ff
ff
ff
ff
ff
ff
ff
ff
ff
ff
ENDCHAR
STARTCHAR CD1
ENCODING 209
SWIDTH 480 0
DWIDTH 8 0
BBX 8 16 0 -2
BITMAP
00
00
00
42
00
42
42
42
ff
7e
7e
7e
7e
ff
00
00
ENDCHAR
STARTCHAR CD2
ENCODING 210
SWIDTH 480 0
DWIDTH 8 0
BBX 8 16 0 -2
BITMAP
00
1c
1c
08
3e
49
3e
49
3e
49
1c
2a
22
22
46
00
ENDCHAR
STARTCHAR CD3
ENCODING 211
SWIDTH 480 0
DWIDTH 8 0
BBX 8 16 0 -2
BITMAP
00
48
84
02
25
18
98
64
62
14
08
12
21
42
04
08
ENDCHAR
STARTCHAR CD4
ENCODING 212
SWIDTH 480 0
DWIDTH 8 0
BBX 8 16 0 -2
BITMAP
00
00
00
38
38
10
10
10
10
10
10
10
00
00
00
00
ENDCHAR
STARTCHAR CD5
ENCODING 213
SWIDTH 480 0
DWIDTH 8 0
BBX 8 16 0 -2
BITMAP
00
00
00
00
00
00
00
3e
43
7d
45
45
7e
00
00
00
ENDCHAR
STARTCHAR CD6
ENCODING 214
SWIDTH 480 0
DWIDTH 8 0
BBX 8 16 0 -2
BITMAP
00
00
00
00
00
1c
26
5f
5f
5f
2e
1c
00
00
00
00
ENDCHAR
STARTCHAR CD7
ENCODING 215
SWIDTH 480 0
DWIDTH 8 0
BBX 8 16 0 -2
BITMAP
00
00
00
10
38
54
10
10
10
10
10
10
10
28
00
00
ENDCHAR
STARTCHAR CD8
ENCODING 216
SWIDTH 480 0
DWIDTH 8 0
BBX 8 16 0 -2
BITMAP
00
60
10
48
0c
4c
0c
4c
0c
4c
08
50
20
40
00
00
ENDCHAR
STARTCHAR CD9
ENCODING 217
SWIDTH 480 0
DWIDTH 8 0
BBX 8 16 0 -2
BITMAP
00
00
00
7c
fe
92
10
10
10
10
10
00
00
00
00
00
ENDCHAR
STARTCHAR CDA
ENCODING 218
SWIDTH 480 0
DWIDTH 8 0
BBX 8 16 0 -2
BITMAP
00
00
00
0f
0f
0f
0f
10
a0
40
a0
00
00
00
00
00
ENDCHAR
STARTCHAR CDB
ENCODING 219
SWIDTH 480 0
DWIDTH 8 0
BBX 8 16 0 -2
BITMAP
00
48
4c
5e
7e
5e
4c
48
40
40
40
40
40
40
00
00
ENDCHAR
STARTCHAR CDC
ENCODING 220
SWIDTH 480 0
DWIDTH 8 0
BBX 8 16 0 -2
BITMAP
00
00
00
03
07
0e
1c
38
b0
40
a0
00
00
00
00
00
ENDCHAR
STARTCHAR CDD
ENCODING 221
SWIDTH 480 0
DWIDTH 8 0
BBX 8 16 0 -2
BITMAP
00
00
00
00
00
60
60
60
60
70
7c
5e
00
00
00
00
ENDCHAR
STARTCHAR CDE
ENCODING 222
SWIDTH 480 0
DWIDTH 8 0
BBX 8 16 0 -2
BITMAP
00
00
00
28
aa
aa
be
fc
7d
7d
3e
38
00
00
00
00
ENDCHAR
STARTCHAR CDF
ENCODING 223
SWIDTH 480 0
DWIDTH 8 0
BBX 8 16 0 -2
BITMAP
00
00
00
00
1c
3e
7f
41
41
41
00
00
00
00
00
00
ENDCHAR
STARTCHAR CE0
ENCODING 224
SWIDTH 480 0
DWIDTH 8 0
BBX 8 16 0 -2
BITMAP
00
00
00
00
18
3c
18
7e
db
db
7e
7e
00
00
00
00
ENDCHAR
STARTCHAR CE1
ENCODING 225
SWIDTH 480 0
DWIDTH 8 0
BBX 8 16 0 -2
BITMAP
00
00
00
00
7e
7e
7e
5a
66
3c
3c
18
00
00
00
00
ENDCHAR
STARTCHAR CE2
ENCODING 226
SWIDTH 480 0
DWIDTH 8 0
BBX 8 16 0 -2
BITMAP
00
00
00
36
77
7f
77
7f
77
5d
6b
77
7f
00
00
00
ENDCHAR
STARTCHAR CE3
ENCODING 227
SWIDTH 480 0
DWIDTH 8 0
BBX 8 16 0 -2
BITMAP
00
00
00
00
66
db
b5
2c
56
6a
56
6a
7e
00
00
00
ENDCHAR
STARTCHAR CE4
ENCODING 228
SWIDTH 480 0
DWIDTH 8 0
BBX 8 16 0 -2
BITMAP
00
00
00
00
66
db
b5
2c
56
6a
56
6a
7e
00
00
00
ENDCHAR
STARTCHAR CE5
ENCODING 229
SWIDTH 480 0
DWIDTH 8 0
BBX 8 16 0 -2
BITMAP
00
00
00
00
66
db
bd
3c
7e
7e
7e
7e
7e
00
00
00
ENDCHAR
STARTCHAR CE6
ENCODING 230
SWIDTH 480 0
DWIDTH 8 0
BBX 8 16 0 -2
BITMAP
10
10
10
7c
82
82
92
82
92
ba
fe
00
00
00
00
00
ENDCHAR
STARTCHAR CE7
ENCODING 231
SWIDTH 480 0
DWIDTH 8 0
BBX 8 16 0 -2
BITMAP
00
00
1c
22
42
44
84
82
82
62
1c
70
d8
a8
d8
70
ENDCHAR
STARTCHAR CE8
ENCODING 232
SWIDTH 480 0
DWIDTH 8 0
BBX 8 16 0 -2
BITMAP
00
28
82
10
38
10
38
44
44
44
38
00
00
00
00
00
ENDCHAR
STARTCHAR CE9
ENCODING 233
SWIDTH 480 0
DWIDTH 8 0
BBX 8 16 0 -2
BITMAP
01
02
02
00
00
06
06
0c
0c
18
18
30
30
60
60
00
ENDCHAR
STARTCHAR CEA
ENCODING 234
SWIDTH 480 0
DWIDTH 8 0
BBX 8 16 0 -2
BITMAP
00
22
24
28
80
50
10
08
08
04
04
02
02
00
00
00
ENDCHAR
STARTCHAR CEB
ENCODING 235
SWIDTH 480 0
DWIDTH 8 0
BBX 8 16 0 -2
BITMAP
00
08
10
42
24
00
18
18
18
18
18
18
18
00
00
00
ENDCHAR
STARTCHAR CEC
ENCODING 236
SWIDTH 480 0
DWIDTH 8 0
BBX 8 16 0 -2
BITMAP
00
00
3f
7d
46
7c
44
7c
4c
7c
54
7c
fc
00
00
00
ENDCHAR
STARTCHAR CED
ENCODING 237
SWIDTH 480 0
DWIDTH 8 0
BBX 8 16 0 -2
BITMAP
00
3c
00
18
18
18
3c
6e
5e
5e
5e
7e
7e
7e
00
00
ENDCHAR
STARTCHAR CEE
ENCODING 238
SWIDTH 480 0
DWIDTH 8 0
BBX 8 16 0 -2
BITMAP
00
00
00
00
38
7c
fe
fe
10
10
38
00
00
00
00
00
ENDCHAR
STARTCHAR CEF
ENCODING 239
SWIDTH 480 0
DWIDTH 8 0
BBX 8 16 0 -2
BITMAP
00
00
7c
7e
7d
55
7d
4d
7d
7d
7d
7d
7d
43
3f
00
ENDCHAR
STARTCHAR CF0
ENCODING 240
SWIDTH 480 0
DWIDTH 8 0
BBX 8 16 0 -2
BITMAP
00
00
92
54
01
98
3d
bc
19
40
82
29
48
00
00
00
ENDCHAR
STARTCHAR CF1
ENCODING 241
SWIDTH 480 0
DWIDTH 8 0
BBX 8 16 0 -2
BITMAP
00
00
00
01
02
08
7b
78
08
02
01
00
00
00
00
00
ENDCHAR
STARTCHAR CF2
ENCODING 242
SWIDTH 480 0
DWIDTH 8 0
BBX 8 16 0 -2
BITMAP
00
00
00
00
00
00
10
38
7c
fe
fe
7c
00
00
00
00
ENDCHAR
STARTCHAR CF3
ENCODING 243
SWIDTH 480 0
DWIDTH 8 0
BBX 8 16 0 -2
BITMAP
00
00
00
3c
76
c1
d7
c1
f5
c1
76
3c
00
00
00
00
ENDCHAR
STARTCHAR CF4
ENCODING 244
SWIDTH 480 0
DWIDTH 8 0
BBX 8 16 0 -2
BITMAP
00
28
28
82
44
00
7c
c6
7c
38
10
00
00
00
00
00
ENDCHAR
STARTCHAR CF5
ENCODING 245
SWIDTH 480 0
DWIDTH 8 0
BBX 8 16 0 -2
BITMAP
00
00
38
10
10
10
10
38
54
92
38
54
92
30
00
00
ENDCHAR
STARTCHAR CF6
ENCODING 246
SWIDTH 480 0
DWIDTH 8 0
BBX 8 16 0 -2
BITMAP
00
00
00
00
3c
18
24
42
42
7e
7e
3c
00
00
00
00
ENDCHAR
STARTCHAR CF7
ENCODING 247
SWIDTH 480 0
DWIDTH 8 0
BBX 8 16 0 -2
BITMAP
00
00
00
08
0c
0e
0a
0a
0c
08
78
f8
70
00
00
00
ENDCHAR
STARTCHAR CF8
ENCODING 248
SWIDTH 480 0
DWIDTH 8 0
BBX 8 16 0 -2
BITMAP
00
00
00
00
3c
66
66
0c
18
18
00
18
18
00
00
00
ENDCHAR
ENDFONT
